<svg width="14" height="14" viewBox="0 0 14 14" fill="none" xmlns="http://www.w3.org/2000/svg">
<path fill-rule="evenodd" clip-rule="evenodd" d="M9.43553 13.5003H3.7897C1.71585 13.5003 0.124867 12.7512 0.57678 9.73639L1.10298 5.6506C1.38156 4.14628 2.34111 3.57056 3.18303 3.57056H10.067C10.9213 3.57056 11.8251 4.18962 12.147 5.6506L12.6732 9.73639C13.057 12.4108 11.5094 13.5003 9.43553 13.5003Z" stroke="black" stroke-linecap="round" stroke-linejoin="round"/>
<path d="M9.52846 3.42203C9.52846 1.80827 8.22025 0.500061 6.60647 0.500061C5.82937 0.496774 5.08298 0.803169 4.53233 1.3515C3.98168 1.89983 3.67212 2.64493 3.67213 3.42203" stroke="black" stroke-linecap="round" stroke-linejoin="round"/>
<path d="M8.61207 6.46725H8.58116" stroke="black" stroke-linecap="round" stroke-linejoin="round"/>
<path d="M4.66897 6.46725H4.63802" stroke="black" stroke-linecap="round" stroke-linejoin="round"/>
</svg>
