<svg width="17" height="18" viewBox="0 0 17 18" fill="none" xmlns="http://www.w3.org/2000/svg">
<path fill-rule="evenodd" clip-rule="evenodd" d="M12.0639 17.2017H4.92817C2.30703 17.2017 0.296184 16.255 0.867357 12.4445L1.53242 7.28051C1.88452 5.3792 3.09729 4.65154 4.16139 4.65154H12.8621C13.9418 4.65154 15.0841 5.43397 15.491 7.28051L16.1561 12.4445C16.6412 15.8247 14.6851 17.2017 12.0639 17.2017Z" stroke="white" stroke-width="1.5" stroke-linecap="round" stroke-linejoin="round"/>
<path d="M12.1812 4.46335C12.1812 2.42373 10.5278 0.770276 8.48813 0.770276C7.50596 0.766121 6.56259 1.15337 5.86662 1.84641C5.17065 2.53944 4.77941 3.48117 4.77942 4.46335" stroke="white" stroke-width="1.5" stroke-linecap="round" stroke-linejoin="round"/>
<path d="M11.023 8.31421H10.984" stroke="white" stroke-width="1.5" stroke-linecap="round" stroke-linejoin="round"/>
<path d="M6.03909 8.31421H5.99997" stroke="white" stroke-width="1.5" stroke-linecap="round" stroke-linejoin="round"/>
</svg>
